<svg width="35" height="33" viewBox="0 0 35 33" fill="none" xmlns="http://www.w3.org/2000/svg">
<mask id="path-1-inside-1_1737_615" fill="white">
<path fill-rule="evenodd" clip-rule="evenodd" d="M17.0083 0C15.6276 0 14.5083 1.11929 14.5083 2.5V14.0135L2.52271 14.1262C1.14206 14.1392 0.0341486 15.269 0.0481259 16.6496C0.0621032 18.0302 1.19267 19.1389 2.57332 19.126L14.5083 19.0137V30.5C14.5083 31.8807 15.6276 33 17.0083 33C18.389 33 19.5083 31.8807 19.5083 30.5V18.9667L31.8085 18.851C33.1891 18.838 34.2971 17.7082 34.2831 16.3276C34.2691 14.947 33.1385 13.8383 31.7579 13.8512L19.5083 13.9665V2.5C19.5083 1.11929 18.389 0 17.0083 0Z"/>
</mask>
<path fill-rule="evenodd" clip-rule="evenodd" d="M17.0083 0C15.6276 0 14.5083 1.11929 14.5083 2.5V14.0135L2.52271 14.1262C1.14206 14.1392 0.0341486 15.269 0.0481259 16.6496C0.0621032 18.0302 1.19267 19.1389 2.57332 19.126L14.5083 19.0137V30.5C14.5083 31.8807 15.6276 33 17.0083 33C18.389 33 19.5083 31.8807 19.5083 30.5V18.9667L31.8085 18.851C33.1891 18.838 34.2971 17.7082 34.2831 16.3276C34.2691 14.947 33.1385 13.8383 31.7579 13.8512L19.5083 13.9665V2.5C19.5083 1.11929 18.389 0 17.0083 0Z" fill="#E2D2BC"/>
<path d="M14.5083 14.0135L14.5177 15.0134L15.5083 15.0041V14.0135H14.5083ZM2.52271 14.1262L2.5133 13.1263L2.5133 13.1263L2.52271 14.1262ZM0.0481259 16.6496L1.04807 16.6395L0.0481259 16.6496ZM2.57332 19.126L2.56392 18.126L2.56392 18.126L2.57332 19.126ZM14.5083 19.0137H15.5083V18.0043L14.4989 18.0138L14.5083 19.0137ZM19.5083 18.9667L19.4989 17.9667L18.5083 17.976V18.9667H19.5083ZM31.8085 18.851L31.8179 19.8509L31.8179 19.8509L31.8085 18.851ZM34.2831 16.3276L35.283 16.3175L34.2831 16.3276ZM31.7579 13.8512L31.7485 12.8513L31.7485 12.8513L31.7579 13.8512ZM19.5083 13.9665H18.5083V14.9759L19.5177 14.9664L19.5083 13.9665ZM15.5083 2.5C15.5083 1.67157 16.1799 1 17.0083 1V-1C15.0753 -1 13.5083 0.567003 13.5083 2.5H15.5083ZM15.5083 14.0135V2.5H13.5083V14.0135H15.5083ZM2.53211 15.1262L14.5177 15.0134L14.4989 13.0135L2.5133 13.1263L2.53211 15.1262ZM1.04807 16.6395C1.03969 15.8114 1.704 15.134 2.53211 15.1262L2.5133 13.1263C0.58011 13.1444 -0.971394 14.7265 -0.951823 16.6597L1.04807 16.6395ZM2.56392 18.126C1.73525 18.1338 1.05646 17.4681 1.04807 16.6395L-0.951823 16.6597C-0.932257 18.5923 0.6501 20.1441 2.58273 20.1259L2.56392 18.126ZM14.4989 18.0138L2.56392 18.126L2.58273 20.1259L14.5177 20.0137L14.4989 18.0138ZM15.5083 30.5V19.0137H13.5083V30.5H15.5083ZM17.0083 32C16.1799 32 15.5083 31.3284 15.5083 30.5H13.5083C13.5083 32.433 15.0753 34 17.0083 34V32ZM18.5083 30.5C18.5083 31.3284 17.8367 32 17.0083 32V34C18.9413 34 20.5083 32.433 20.5083 30.5H18.5083ZM18.5083 18.9667V30.5H20.5083V18.9667H18.5083ZM31.7991 17.851L19.4989 17.9667L19.5177 19.9666L31.8179 19.8509L31.7991 17.851ZM33.2831 16.3377C33.2915 17.1658 32.6272 17.8432 31.7991 17.851L31.8179 19.8509C33.7511 19.8328 35.3026 18.2507 35.283 16.3175L33.2831 16.3377ZM31.7673 14.8512C32.596 14.8434 33.2747 15.5091 33.2831 16.3377L35.283 16.3175C35.2635 14.3849 33.6811 12.8331 31.7485 12.8513L31.7673 14.8512ZM19.5177 14.9664L31.7673 14.8512L31.7485 12.8513L19.4989 12.9665L19.5177 14.9664ZM18.5083 2.5V13.9665H20.5083V2.5H18.5083ZM17.0083 1C17.8367 1 18.5083 1.67157 18.5083 2.5H20.5083C20.5083 0.567004 18.9413 -1 17.0083 -1V1Z" fill="#1D1D1B" mask="url(#path-1-inside-1_1737_615)"/>
</svg>
